<svg width="34" height="34" viewBox="0 0 34 34" fill="none" xmlns="http://www.w3.org/2000/svg">
<path d="M19.5615 26.512C20.7869 26.512 21.4344 27.9627 20.6169 28.875C20.0855 29.4687 19.4348 29.9436 18.7073 30.2688C17.9799 30.5939 17.1921 30.762 16.3953 30.762C15.5985 30.762 14.8106 30.5939 14.0832 30.2688C13.3558 29.9436 12.7051 29.4687 12.1736 28.875C11.3916 28.0024 11.9498 26.6381 13.0718 26.522L13.2276 26.5135L19.5615 26.512ZM16.3953 2.42871C18.3191 2.42871 19.9454 3.70796 20.4682 5.46179L20.5334 5.70404L20.5447 5.76496C22.1066 6.64572 23.4376 7.8841 24.4285 9.37859C25.4194 10.8731 26.042 12.5811 26.2454 14.3627L26.285 14.7693L26.3119 15.1787V19.331L26.3417 19.5236C26.5357 20.5675 27.1133 21.5009 27.9609 22.1402L28.1975 22.306L28.427 22.4462C29.6454 23.1361 29.2204 24.948 27.8929 25.0869L27.7286 25.0954H5.06194C3.6056 25.0954 3.09702 23.163 4.36352 22.4462C4.90331 22.1407 5.3697 21.7208 5.72995 21.2159C6.0902 20.711 6.33558 20.1334 6.44885 19.5236L6.4786 19.321L6.48002 15.1135C6.5664 13.2632 7.105 11.4622 8.04867 9.86829C8.99235 8.27434 10.3123 6.93599 11.8931 5.97038L12.2444 5.76354L12.2586 5.70263C12.4584 4.85522 12.9137 4.08963 13.5629 3.50941C14.212 2.92919 15.0237 2.56233 15.8881 2.45846L16.1459 2.43438L16.3953 2.42871Z" fill="#9696BB"/>
</svg>
