<svg width="135" height="135" viewBox="0 0 135 135" fill="none" xmlns="http://www.w3.org/2000/svg">
<path d="M33.75 78.7501H78.75V67.5001H33.75V78.7501ZM33.75 61.8751H101.25V50.6251H33.75V61.8751ZM33.75 45.0001H101.25V33.7501H33.75V45.0001ZM11.25 123.75V22.5001C11.25 19.4064 12.3525 16.7589 14.5575 14.5576C16.7625 12.3564 19.41 11.2539 22.5 11.2501H112.5C115.594 11.2501 118.243 12.3526 120.448 14.5576C122.653 16.7626 123.754 19.4101 123.75 22.5001V90.0001C123.75 93.0939 122.649 95.7432 120.448 97.9482C118.247 100.153 115.598 101.254 112.5 101.25H33.75L11.25 123.75ZM28.9688 90.0001H112.5V22.5001H22.5V96.3282L28.9688 90.0001Z" fill="#CBD5E1"/>
</svg>
